<?xml version="1.0" encoding="iso-8859-1"?>
<!-- Generator: Adobe Illustrator 19.0.0, SVG Export Plug-In . SVG Version: 6.00 Build 0)  -->
<svg version="1.1" id="Capa_1" xmlns="http://www.w3.org/2000/svg" xmlns:xlink="http://www.w3.org/1999/xlink" x="0px" y="0px"
	 viewBox="0 0 512 512" style="enable-background:new 0 0 512 512;" xml:space="preserve">
<g>
	<g>
		<g>
			<path d="M480,288v112c0,44.183-35.817,80-80,80H112c-44.183,0-80-35.817-80-80V112c0-44.183,35.817-80,80-80h96V0h-96
				C50.144,0,0,50.144,0,112v288c0,61.856,50.144,112,112,112h288c61.856,0,112-50.144,112-112V288H480z"/>
			<path d="M176,416h32V288c0-125.76,107.52-128,112-128h105.44l-84.64,84.64l22.56,22.56l112-112c6.204-6.241,6.204-16.319,0-22.56
				l-112-112l-22.72,22.72l84.8,84.64H320c-1.44,0-144,1.76-144,160V416z"/>
		</g>
	</g>
</g>
<g>
</g>
<g>
</g>
<g>
</g>
<g>
</g>
<g>
</g>
<g>
</g>
<g>
</g>
<g>
</g>
<g>
</g>
<g>
</g>
<g>
</g>
<g>
</g>
<g>
</g>
<g>
</g>
<g>
</g>
</svg>
