<?xml version="1.0" encoding="UTF-8" standalone="no"?>
<svg
   xmlns:dc="http://purl.org/dc/elements/1.1/"
   xmlns:cc="http://creativecommons.org/ns#"
   xmlns:rdf="http://www.w3.org/1999/02/22-rdf-syntax-ns#"
   xmlns:svg="http://www.w3.org/2000/svg"
   xmlns="http://www.w3.org/2000/svg"
   xmlns:sodipodi="http://sodipodi.sourceforge.net/DTD/sodipodi-0.dtd"
   xmlns:inkscape="http://www.inkscape.org/namespaces/inkscape"
   version="1.1"
   id="Capa_1"
   x="0px"
   y="0px"
   viewBox="0 0 336 336"
   style="enable-background:new 0 0 336 336;"
   xml:space="preserve"
   sodipodi:docname="play.svg"
   inkscape:version="1.0.1 (3bc2e813f5, 2020-09-07)"><metadata
   id="metadata49"><rdf:RDF><cc:Work
       rdf:about=""><dc:format>image/svg+xml</dc:format><dc:type
         rdf:resource="http://purl.org/dc/dcmitype/StillImage" /><dc:title></dc:title></cc:Work></rdf:RDF></metadata><defs
   id="defs47" /><sodipodi:namedview
   pagecolor="#ffffff"
   bordercolor="#666666"
   borderopacity="1"
   objecttolerance="10"
   gridtolerance="10"
   guidetolerance="10"
   inkscape:pageopacity="0"
   inkscape:pageshadow="2"
   inkscape:window-width="2560"
   inkscape:window-height="1389"
   id="namedview45"
   showgrid="false"
   inkscape:zoom="3"
   inkscape:cx="168"
   inkscape:cy="168"
   inkscape:window-x="0"
   inkscape:window-y="27"
   inkscape:window-maximized="1"
   inkscape:current-layer="Capa_1" />
<g
   id="g6"
   inkscape:export-xdpi="13.428572"
   inkscape:export-ydpi="13.428572">
	<g
   id="g4">
		<path
   d="M286.8,49.2C256.4,18.8,214.4,0,168,0C121.6,0,79.6,18.8,49.2,49.2C18.8,79.6,0,121.6,0,168c0,46.4,18.8,88.4,49.2,118.8    C79.6,317.2,121.6,336,168,336c46.4,0,88.4-18.8,118.8-49.2C317.2,256.4,336,214.4,336,168C336,121.6,317.2,79.6,286.8,49.2z     M272.4,272.4c-26.8,26.8-63.6,43.2-104.4,43.2s-77.6-16.4-104.4-43.2C37.2,245.6,20.4,208.8,20.4,168S36.8,90.4,63.6,63.6    C90.4,36.8,127.2,20.4,168,20.4s77.6,16.4,104.4,43.2c26.8,26.8,43.2,63.6,43.2,104.4S298.8,245.6,272.4,272.4z"
   id="path2" />
	</g>
</g>
<g
   id="g12">
	<g
   id="g10">
		<path
   d="M261.2,156c-0.8-0.8-2-2.4-3.2-4c-0.4-0.4-0.4-0.4-0.8-0.8c-1.2-1.2-2.4-2-4-2.8l-59.2-34c0,0-0.4,0-0.4-0.4L134,79.6    c-5.2-3.2-11.2-3.6-16.8-2.4c-5.6,1.6-10.4,5.2-13.6,10.4c-1.2,1.6-1.6,3.6-2.4,5.2c-0.4,1.2-0.4,2.8-0.8,4.4c0,0.4,0,1.2,0,1.6    V168v68.8c0,6,2.4,11.6,6.4,15.6s9.6,6.4,15.6,6.4c2,0,4.4-0.4,6.4-1.2s4-1.6,5.6-2.8l58.8-34l0.8-0.4l59.2-34    c0.4,0,0.4-0.4,0.8-0.4c4.8-3.2,8.4-8,9.6-13.2C265.2,167.2,264.4,161.2,261.2,156z M244,168.4c0,0.4-0.4,0.8-0.8,0.8h-0.4    L184,203.6l-0.4,0.4l-58.8,34c-0.4,0-0.4,0.4-0.8,0.4c0,0-0.4,0-0.4,0.4h-0.4c-0.4,0-0.8-0.4-1.2-0.4c-0.4-0.4-0.4-0.8-0.4-1.2    V168V99.2v-0.4v-0.4c0.4-0.4,0.8-0.8,1.2-0.8c0.4,0,0.8,0,1.2,0l59.2,34l0.4,0.4l59.6,34.4l0.4,0.4l0.4,0.4    C244,167.6,244,168,244,168.4z"
   id="path8" />
	</g>
</g>
<g
   id="g14">
</g>
<g
   id="g16">
</g>
<g
   id="g18">
</g>
<g
   id="g20">
</g>
<g
   id="g22">
</g>
<g
   id="g24">
</g>
<g
   id="g26">
</g>
<g
   id="g28">
</g>
<g
   id="g30">
</g>
<g
   id="g32">
</g>
<g
   id="g34">
</g>
<g
   id="g36">
</g>
<g
   id="g38">
</g>
<g
   id="g40">
</g>
<g
   id="g42">
</g>
</svg>
