<?xml version="1.0" encoding="UTF-8" standalone="no"?>
<svg
   xmlns:dc="http://purl.org/dc/elements/1.1/"
   xmlns:cc="http://creativecommons.org/ns#"
   xmlns:rdf="http://www.w3.org/1999/02/22-rdf-syntax-ns#"
   xmlns:svg="http://www.w3.org/2000/svg"
   xmlns="http://www.w3.org/2000/svg"
   xmlns:sodipodi="http://sodipodi.sourceforge.net/DTD/sodipodi-0.dtd"
   xmlns:inkscape="http://www.inkscape.org/namespaces/inkscape"
   version="1.1"
   id="Capa_1"
   x="0px"
   y="0px"
   viewBox="0 0 336 336"
   style="enable-background:new 0 0 336 336;"
   xml:space="preserve"
   sodipodi:docname="stop.svg"
   inkscape:version="1.0.1 (3bc2e813f5, 2020-09-07)"><metadata
   id="metadata49"><rdf:RDF><cc:Work
       rdf:about=""><dc:format>image/svg+xml</dc:format><dc:type
         rdf:resource="http://purl.org/dc/dcmitype/StillImage" /><dc:title /></cc:Work></rdf:RDF></metadata><defs
   id="defs47" /><sodipodi:namedview
   pagecolor="#ffffff"
   bordercolor="#666666"
   borderopacity="1"
   objecttolerance="10"
   gridtolerance="10"
   guidetolerance="10"
   inkscape:pageopacity="0"
   inkscape:pageshadow="2"
   inkscape:window-width="2560"
   inkscape:window-height="1389"
   id="namedview45"
   showgrid="false"
   inkscape:zoom="3"
   inkscape:cx="168"
   inkscape:cy="168"
   inkscape:window-x="0"
   inkscape:window-y="27"
   inkscape:window-maximized="1"
   inkscape:current-layer="Capa_1"
   inkscape:document-rotation="0" />
<g
   id="g6"
   inkscape:export-xdpi="13.428572"
   inkscape:export-ydpi="13.428572">
	<g
   id="g4">
		<path
   d="M286.8,49.2C256.4,18.8,214.4,0,168,0C121.6,0,79.6,18.8,49.2,49.2C18.8,79.6,0,121.6,0,168c0,46.4,18.8,88.4,49.2,118.8    C79.6,317.2,121.6,336,168,336c46.4,0,88.4-18.8,118.8-49.2C317.2,256.4,336,214.4,336,168C336,121.6,317.2,79.6,286.8,49.2z     M272.4,272.4c-26.8,26.8-63.6,43.2-104.4,43.2s-77.6-16.4-104.4-43.2C37.2,245.6,20.4,208.8,20.4,168S36.8,90.4,63.6,63.6    C90.4,36.8,127.2,20.4,168,20.4s77.6,16.4,104.4,43.2c26.8,26.8,43.2,63.6,43.2,104.4S298.8,245.6,272.4,272.4z"
   id="path2" />
	</g>
</g>

<g
   id="g14">
</g>
<g
   id="g16">
</g>
<g
   id="g18">
</g>
<g
   id="g20">
</g>
<g
   id="g22">
</g>
<g
   id="g24">
</g>
<g
   id="g26">
</g>
<g
   id="g28">
</g>
<g
   id="g30">
</g>
<g
   id="g32">
</g>
<g
   id="g34">
</g>
<g
   id="g36">
</g>
<g
   id="g38">
</g>
<g
   id="g40">
</g>
<g
   id="g42">
</g>
<rect
   style="fill:none"
   id="rect193"
   width="131.99016"
   height="124.66364"
   x="106.15751"
   y="91.490211" /><rect
   style="opacity:1;fill:none;stroke:#000000;stroke-width:17.9;stroke-miterlimit:4;stroke-dasharray:none;stroke-opacity:1"
   id="rect195"
   width="150"
   height="150"
   x="91.383003"
   y="91.496002"
   ry="24.700001"
   rx="28.799999" /><path
   style="opacity:1;fill:#ffff00;stroke:#000000;stroke-width:5.96667;stroke-miterlimit:4;stroke-dasharray:none;stroke-opacity:1"
   d="M 161.33333,315.30617 C 149.8197,314.44592 143.68314,313.63303 136.24845,311.98323 100.78313,304.11329 70.211723,284.00819 48.739871,254.43376 33.481017,233.41686 24.167049,209.01689 21.281281,182.5 c -0.682121,-6.2679 -0.7704,-21.8521 -0.157666,-27.83333 3.645199,-35.58285 18.03025,-66.201493 42.685905,-90.85715 24.657687,-24.657688 55.2087,-39.011901 90.85715,-42.688696 5.17387,-0.533636 21.51845,-0.531833 26.66666,0.0029 31.35125,3.256626 57.60926,14.211207 81.5,34.000989 4.63583,3.840064 13.12046,12.247654 17.21526,17.05893 44.80341,52.642837 47.28475,128.268217 6.03203,183.841297 -24.73798,33.32545 -61.57182,54.27706 -103.08575,58.63664 -4.73694,0.49745 -18.24911,0.89951 -21.66154,0.64455 z m 58.5246,-65.34328 c 6.12121,-1.04636 12.42142,-3.69146 17.05165,-7.159 3.23901,-2.42567 7.1898,-6.79509 9.18211,-10.15503 1.98452,-3.34683 3.60413,-7.99604 4.1028,-11.77747 0.21593,-1.63739 0.29821,-21.58236 0.23186,-56.20472 L 250.3235,111 l -0.88008,-2.91613 c -1.7548,-5.8145 -4.05345,-9.691633 -8.41736,-14.19757 -5.55462,-5.735403 -12.90567,-9.473417 -21.37531,-10.86936 -2.99463,-0.493567 -8.32847,-0.53633 -54.81742,-0.439497 l -51.5,0.10727 -3,0.78837 c -7.38267,1.940094 -13.13519,5.090314 -18.005493,9.86025 -4.765174,4.666974 -7.698174,9.652587 -9.2407,15.707667 L 82.333333,112 v 54.5 54.5 l 0.753804,2.959 c 1.487176,5.8378 4.41734,10.92112 8.886493,15.41651 5.50306,5.53536 13.71115,9.60478 21.69304,10.75499 1.1,0.15851 24.73606,0.3065 52.52459,0.32885 45.06176,0.0363 50.86432,-0.0174 53.66667,-0.49646 z"
   id="path1020" /><path
   style="opacity:1;fill:#ffff00;stroke:#000000;stroke-width:5.96667;stroke-miterlimit:4;stroke-dasharray:none;stroke-opacity:1"
   d="m 117.14153,232.17738 c -6.86489,-0.90041 -12.59744,-4.65856 -15.24348,-9.99334 l -1.23138,-2.48262 -0.0874,-52.50135 c -0.0786,-47.21071 -0.0339,-52.68771 0.44377,-54.35071 1.48153,-5.15802 6.44474,-9.51954 12.98868,-11.41406 l 2.65497,-0.76863 h 49.66666 c 55.79858,0 51.19369,-0.20548 56.78201,2.5337 3.51291,1.7219 6.1879,4.30771 7.76019,7.50148 L 232,112.98598 V 166.5 220.01402 l -1.12595,2.28712 c -1.55031,3.14913 -4.31654,5.81242 -7.81625,7.52539 -5.53291,2.70813 -0.82462,2.49171 -55.39113,2.5461 -26.76667,0.0267 -49.50298,-0.0612 -50.52514,-0.19525 z"
   id="path1022" /></svg>
