<?xml version="1.0" encoding="utf-8"?>
<!-- Generator: Adobe Illustrator 16.0.0, SVG Export Plug-In . SVG Version: 6.00 Build 0)  -->
<!DOCTYPE svg PUBLIC "-//W3C//DTD SVG 1.1//EN" "http://www.w3.org/Graphics/SVG/1.1/DTD/svg11.dtd" [
	<!ENTITY ns_extend "http://ns.adobe.com/Extensibility/1.0/">
	<!ENTITY ns_ai "http://ns.adobe.com/AdobeIllustrator/10.0/">
	<!ENTITY ns_graphs "http://ns.adobe.com/Graphs/1.0/">
	<!ENTITY ns_vars "http://ns.adobe.com/Variables/1.0/">
	<!ENTITY ns_imrep "http://ns.adobe.com/ImageReplacement/1.0/">
	<!ENTITY ns_sfw "http://ns.adobe.com/SaveForWeb/1.0/">
	<!ENTITY ns_custom "http://ns.adobe.com/GenericCustomNamespace/1.0/">
	<!ENTITY ns_adobe_xpath "http://ns.adobe.com/XPath/1.0/">
]>
<svg version="1.1" id="Layer_1" xmlns:x="&ns_extend;" xmlns:i="&ns_ai;" xmlns:graph="&ns_graphs;"
	 xmlns="http://www.w3.org/2000/svg" xmlns:xlink="http://www.w3.org/1999/xlink" x="0px" y="0px" width="894.191px"
	 height="593.188px" viewBox="0 0 894.191 593.188" enable-background="new 0 0 894.191 593.188" xml:space="preserve">
<metadata>
	<sfw  xmlns="&ns_sfw;">
		<slices></slices>
		<sliceSourceBounds  width="894.191" height="593.188" x="1082.809" y="-1077.521" bottomLeftOrigin="true"></sliceSourceBounds>
	</sfw>
</metadata>
<g>
	<g>
		<path fill="#4D4D4D" d="M97.797,397.244c-12.399-8.771-30.249-13.215-53.048-13.215c-6.456,0-13.682,0.275-21.453,0.809
			c-7.845,0.55-15.063,1.614-21.46,3.171L0,388.457v161.471h27.137v-59.142h15.318c11.307,0,21.614-0.946,30.627-2.811
			c9.16-1.892,17.066-4.991,23.495-9.202c6.542-4.278,11.622-9.932,15.104-16.807c3.454-6.832,5.206-15.134,5.206-24.675
			C116.887,419.668,110.467,406.193,97.797,397.244z M88.589,437.063c0,5.999-1.053,10.948-3.14,14.707
			c-2.078,3.729-5.05,6.707-8.857,8.849c-3.955,2.23-8.916,3.839-14.738,4.784c-5.961,0.974-12.803,1.468-20.32,1.468H27.137
			v-57.958c4.84-0.336,11.36-0.503,19.455-0.503c5.818,0,11.406,0.451,16.62,1.343c5.056,0.869,9.548,2.435,13.343,4.652
			c3.692,2.164,6.654,5.093,8.813,8.705C87.506,426.704,88.589,431.396,88.589,437.063z"/>
		<path fill="#4D4D4D" d="M210.607,427.32c-3.805,16.602-7.902,32.984-12.168,48.688c-3.763,13.837-8.178,27.982-13.15,42.132
			c-2.795-6.167-5.499-12.504-8.059-18.924c-3.354-8.373-6.515-16.855-9.395-25.203c-2.893-8.37-5.554-16.623-7.916-24.523
			c-2.343-7.865-4.387-15.332-6.057-22.207l-0.454-1.836h-28.022l0.787,3.018c5.535,21.199,12.577,42.396,20.932,63.004
			c8.174,20.196,17.111,39.611,26.582,57.724c-3.533,7.5-7.469,12.992-11.692,16.336c-4.302,3.396-10.462,5.123-18.298,5.123
			c-2.396,0-4.867-0.326-7.338-0.964c-2.533-0.65-4.607-1.336-6.167-2.045l-2.688-1.223l-4.988,21.983l1.693,0.846
			c0.732,0.369,1.867,0.793,3.46,1.29c1.501,0.479,3.194,0.922,5.047,1.331c1.849,0.396,3.737,0.717,5.614,0.952
			c1.935,0.244,3.82,0.365,5.596,0.365c6.493,0,12.425-0.809,17.618-2.407c5.261-1.62,10.057-4.165,14.273-7.563
			c4.153-3.356,7.994-7.684,11.424-12.855c3.353-5.07,6.634-11.188,9.751-18.206c7.8-18.045,15.184-37.741,21.941-58.547
			c6.734-20.751,12.947-42.678,18.461-65.177l0.723-2.984h-27.076L210.607,427.32z"/>
		<path fill="#4D4D4D" d="M322.512,523.647c-1.523,0.61-4.227,1.639-8.113,3.085c-3.616,1.349-8.557,2.038-14.689,2.038
			c-3.404,0-6.404-0.424-8.903-1.257c-2.353-0.787-4.251-2.084-5.81-3.973c-1.593-1.92-2.819-4.684-3.655-8.217
			c-0.87-3.705-1.312-8.517-1.312-14.289v-52.816h45.328v-22.771h-45.328v-37.494l-26.223,4.507v108.804
			c0,8.113,0.678,15.369,2.011,21.561c1.37,6.389,3.808,11.859,7.243,16.274c3.473,4.47,8.113,7.866,13.795,10.085
			c5.551,2.172,12.617,3.273,21.011,3.273c7.104,0,13.532-0.845,19.095-2.514c5.559-1.672,9.373-3.036,11.668-4.181l1.703-0.857
			l-5.213-22.295L322.512,523.647z"/>
		<path fill="#4D4D4D" d="M438.412,439.15c-3.998-5.136-9.386-9.179-16.031-12.013c-6.566-2.802-14.865-4.22-24.648-4.22
			c-4.564,0-9.244,0.441-13.898,1.306c-3.436,0.644-6.758,1.489-9.919,2.521v-60.656l-26.22,4.51v179.33h26.22V449.842
			c0.513-0.152,1.165-0.336,1.995-0.556c1.666-0.434,3.619-0.845,5.776-1.221c2.194-0.372,4.501-0.714,6.907-1.019
			c8.15-1.014,15.263-0.306,20.246,1.59c3.423,1.297,6.068,3.316,8.104,6.163c2.084,2.917,3.615,6.859,4.543,11.71
			c0.961,5.044,1.449,11.244,1.449,18.418v65h26.223v-69.602c0-8.263-0.799-15.949-2.361-22.856
			C445.188,450.402,442.369,444.236,438.412,439.15z"/>
		<path fill="#4D4D4D" d="M573.147,440.511c-5.199-5.755-11.481-10.252-18.671-13.367c-7.173-3.112-15.082-4.684-23.503-4.684
			c-8.427,0-16.337,1.571-23.51,4.684c-7.198,3.118-13.478,7.612-18.664,13.367c-5.169,5.73-9.249,12.696-12.104,20.709
			c-2.841,7.979-4.281,16.882-4.281,26.466c0,9.746,1.44,18.695,4.281,26.592c2.855,7.93,6.93,14.854,12.104,20.586
			c5.187,5.752,11.466,10.253,18.664,13.368c7.173,3.112,15.083,4.689,23.51,4.689c8.421,0,16.33-1.577,23.503-4.689
			c7.189-3.115,13.472-7.61,18.671-13.368c5.175-5.738,9.242-12.665,12.095-20.586c2.844-7.891,4.284-16.837,4.284-26.592
			c0-9.596-1.44-18.499-4.28-26.466C582.39,453.213,578.322,446.247,573.147,440.511z M562.389,487.686
			c0,12.897-2.898,23.205-8.592,30.638c-5.633,7.341-13.096,10.905-22.823,10.905c-9.733,0-17.202-3.564-22.829-10.905
			c-5.699-7.427-8.592-17.737-8.592-30.638c0-12.895,2.893-23.204,8.592-30.631c5.633-7.342,13.096-10.908,22.829-10.908
			c9.722,0,17.19,3.566,22.823,10.905C559.49,464.487,562.389,474.797,562.389,487.686z"/>
		<path fill="#4D4D4D" d="M705.57,439.15c-3.996-5.136-9.385-9.179-16.031-12.013c-6.566-2.802-14.859-4.22-24.641-4.22
			c-10.674,0-20.258,0.707-28.48,2.105c-8.141,1.382-14.783,2.709-19.742,3.947l-1.82,0.458v120.499h26.215V448.499
			c0.525-0.092,1.127-0.198,1.798-0.317c1.735-0.299,3.692-0.564,5.825-0.784c2.188-0.229,4.494-0.418,6.916-0.564
			c8.397-0.519,15.391-0.098,20.389,1.804c3.424,1.297,6.068,3.316,8.104,6.163c2.084,2.917,3.615,6.859,4.543,11.71
			c0.962,5.044,1.456,11.244,1.456,18.418v65h26.215v-69.602c0-8.263-0.793-15.949-2.361-22.856
			C712.348,450.402,709.525,444.236,705.57,439.15z"/>
		<path fill="#4D4D4D" d="M759.926,375.746c-4.455,0-8.3,1.494-11.434,4.448c-3.17,2.993-4.781,7.03-4.781,11.994
			c0,4.971,1.611,9.001,4.781,11.995c3.134,2.956,6.979,4.454,11.434,4.454c4.454,0,8.299-1.498,11.436-4.454
			c3.17-2.994,4.784-7.03,4.784-11.995c0-4.958-1.614-8.995-4.79-11.994C768.225,377.24,764.38,375.746,759.926,375.746z"/>
		<rect x="746.934" y="425.447" fill="#4D4D4D" width="26.222" height="124.48"/>
		<path fill="#4D4D4D" d="M890.414,522.809l-2.877,1.357c-2.453,1.15-5.926,2.255-10.342,3.286c-4.402,1.025-9.4,1.547-14.868,1.547
			c-6.7,0-12.428-0.982-17.014-2.917c-4.524-1.91-8.278-4.652-11.151-8.168c-2.914-3.552-5.084-7.894-6.441-12.909
			c-1.395-5.126-2.103-10.872-2.103-17.091c0-13.764,3.023-24.312,8.979-31.348c5.941-7.009,14.335-10.42,25.658-10.42
			c4.559,0,8.918,0.442,12.949,1.324c4.012,0.876,7.592,2.057,10.637,3.506l2.621,1.242l6.123-23.034l-1.971-0.8
			c-5.053-2.047-10.41-3.569-15.912-4.512c-5.482-0.94-11.043-1.413-16.516-1.413c-9.035,0-17.381,1.653-24.792,4.921
			c-7.423,3.274-13.785,7.891-18.908,13.73c-5.089,5.813-9.075,12.776-11.851,20.7c-2.759,7.884-4.156,16.672-4.156,26.103
			c0,9.42,1.275,18.149,3.796,25.939c2.544,7.887,6.468,14.798,11.667,20.55c5.193,5.764,11.675,10.301,19.26,13.492
			c7.549,3.183,16.422,4.79,26.359,4.79c3.128,0,6.436-0.197,9.834-0.592c3.332-0.384,6.518-0.86,9.48-1.403
			c3.012-0.562,5.733-1.196,8.074-1.897c2.541-0.766,4.457-1.568,5.879-2.457l1.361-0.854L890.414,522.809z"/>
	</g>
	<g>
		<path fill="#FFFFFF" d="M580.324,217.372c0.506,0,1-0.062,1.508-0.076h-3.016C579.323,217.311,579.817,217.372,580.324,217.372z"
			/>
		<path fill="#3D7BA5" d="M355.424,158.889c-2.587-3.941-7.035-6.554-12.106-6.554s-9.521,2.612-12.107,6.554
			c-1.501,2.285-2.386,5.004-2.386,7.937c0,2.936,0.885,5.654,2.386,7.937c2.587,3.941,7.036,6.554,12.107,6.554
			s9.52-2.612,12.113-6.554c1.495-2.282,2.386-5.001,2.386-7.937C357.816,163.893,356.926,161.174,355.424,158.889z"/>
		<path fill="#3D7BA5" d="M459.197,158.889c-2.588-3.941-7.031-6.554-12.102-6.554c-5.071,0-9.514,2.612-12.102,6.554
			c-1.501,2.285-2.386,5.004-2.386,7.937c0,2.936,0.885,5.654,2.38,7.937c2.594,3.941,7.036,6.554,12.107,6.554
			c5.07,0,9.514-2.612,12.107-6.554c1.494-2.282,2.379-5.001,2.379-7.937C461.582,163.893,460.697,161.174,459.197,158.889z"/>
		<path fill="#3D7BA5" d="M562.975,158.889c-2.588-3.941-7.035-6.554-12.107-6.554c-5.064,0-9.514,2.612-12.101,6.554
			c-1.501,2.285-2.386,5.004-2.386,7.937c0,2.936,0.885,5.654,2.386,7.937c2.587,3.941,7.036,6.554,12.101,6.554
			c5.072,0,9.52-2.612,12.113-6.554c1.502-2.282,2.387-5.001,2.387-7.937C565.367,163.893,564.482,161.174,562.975,158.889z"/>
		<path fill="#FFFFFF" d="M265.597,291.492c0,0.266,0.036,0.525,0.042,0.784v-1.602
			C265.633,290.949,265.597,291.215,265.597,291.492z"/>
		<path fill="#3D7BA5" d="M628.436,86.071h0.067v-0.76l0.024-26.298l0.012-7.314l0.006-3.674l0.007-5.05
			c0.006-0.271,0.042-0.54,0.042-0.818c0-0.265-0.036-0.521-0.042-0.784C628.131,18.45,609.451,0,586.433,0H478.12h-20.889h-5.229
			h-2.344c-1.458,0.039-2.898,0.158-4.314,0.341c-20.821,2.691-36.914,20.44-36.932,41.991v0.028c0,0.009,0,0.021,0,0.031
			l-0.012,9.037v7.32l-0.037,27.205l36.98,0.04v0.037l38.836,0.042h37.891v30.284H313.867c-24.715,0-45.061,18.582-47.898,42.533
			h50.564c3.424-11.561,14.115-20.01,26.784-20.01c12.675,0,23.36,8.449,26.784,20.01h50.211
			c3.423-11.561,14.108-20.01,26.783-20.01c12.668,0,23.359,8.449,26.783,20.01h50.211c3.418-11.561,14.109-20.01,26.777-20.01
			c12.676,0,23.36,8.449,26.784,20.01h50.942v-0.948v-4.47c-0.061-0.156-0.098-0.327-0.158-0.482V86.071z"/>
		<path fill="#FFD43B" d="M550.867,194.771c-12.668,0-23.359-8.449-26.777-20.01h-50.211c-3.424,11.561-14.115,20.01-26.783,20.01
			c-12.675,0-23.36-8.449-26.783-20.01h-50.211c-3.424,11.561-14.109,20.01-26.784,20.01c-12.669,0-23.36-8.449-26.784-20.01
			h-50.937v0.949v4.47c0.062,0.158,0.098,0.326,0.159,0.481v66.917h-0.068v0.76l-0.029,26.298l-0.007,7.314l-0.006,3.674
			l-0.007,5.05v1.602c0.422,22.924,19.102,41.374,42.113,41.374H416.07h20.889h5.225h2.343c1.464-0.039,2.898-0.155,4.32-0.342
			c20.821-2.69,36.914-20.439,36.933-41.99v-0.027c0-0.01,0-0.021,0-0.031l0.006-9.037l0.006-7.32l0.031-27.204l-36.976-0.04v-0.037
			l-38.842-0.042h-37.884v-30.283h206.695h3.016c24.049-0.745,43.645-19.043,46.396-42.534h-50.577
			C574.228,186.322,563.543,194.771,550.867,194.771z"/>
		<path fill="#FFFFFF" d="M459.233,60.89c5.603,0,10.435-3.133,12.992-7.713c1.19-2.146,1.935-4.589,1.935-7.22
			c0-2.633-0.744-5.077-1.935-7.222c-2.558-4.577-7.39-7.713-12.992-7.713c-5.626,0-10.448,3.137-13.005,7.713
			c-1.195,2.145-1.939,4.589-1.939,7.222c0,2.63,0.744,5.074,1.939,7.22C448.785,57.756,453.607,60.89,459.233,60.89z"/>
		<path fill="#FFFFFF" d="M434.957,272.764c-5.607,0-10.44,3.131-12.991,7.711c-1.196,2.145-1.94,4.589-1.94,7.219
			c0,2.633,0.744,5.077,1.94,7.223c2.551,4.576,7.384,7.713,12.991,7.713c5.621,0,10.441-3.137,13.005-7.713
			c1.196-2.146,1.935-4.59,1.935-7.223c0-2.63-0.738-5.074-1.935-7.219C445.398,275.895,440.578,272.764,434.957,272.764z"/>
	</g>
</g>
</svg>
