<?xml version="1.0" encoding="utf-8"?>
<!-- Generator: Adobe Illustrator 16.0.0, SVG Export Plug-In . SVG Version: 6.00 Build 0)  -->
<!DOCTYPE svg PUBLIC "-//W3C//DTD SVG 1.1//EN" "http://www.w3.org/Graphics/SVG/1.1/DTD/svg11.dtd" [
	<!ENTITY ns_extend "http://ns.adobe.com/Extensibility/1.0/">
	<!ENTITY ns_ai "http://ns.adobe.com/AdobeIllustrator/10.0/">
	<!ENTITY ns_graphs "http://ns.adobe.com/Graphs/1.0/">
	<!ENTITY ns_vars "http://ns.adobe.com/Variables/1.0/">
	<!ENTITY ns_imrep "http://ns.adobe.com/ImageReplacement/1.0/">
	<!ENTITY ns_sfw "http://ns.adobe.com/SaveForWeb/1.0/">
	<!ENTITY ns_custom "http://ns.adobe.com/GenericCustomNamespace/1.0/">
	<!ENTITY ns_adobe_xpath "http://ns.adobe.com/XPath/1.0/">
]>
<svg version="1.1" id="Layer_1" xmlns:x="&ns_extend;" xmlns:i="&ns_ai;" xmlns:graph="&ns_graphs;"
	 xmlns="http://www.w3.org/2000/svg" xmlns:xlink="http://www.w3.org/1999/xlink" x="0px" y="0px" width="362.997px"
	 height="333.65px" viewBox="0 0 362.997 333.65" enable-background="new 0 0 362.997 333.65" xml:space="preserve">
<metadata>
	<sfw  xmlns="&ns_sfw;">
		<slices></slices>
		<sliceSourceBounds  width="362.997" height="333.65" x="1348.405" y="-817.984" bottomLeftOrigin="true"></sliceSourceBounds>
	</sfw>
</metadata>
<g>
	<path fill="#FFFFFF" d="M314.728,217.372c0.506,0,1-0.062,1.508-0.076h-3.016C313.727,217.311,314.221,217.372,314.728,217.372z"/>
	<path fill="#3D7BA5" d="M89.827,158.889c-2.587-3.941-7.035-6.554-12.106-6.554s-9.521,2.612-12.107,6.554
		c-1.501,2.285-2.386,5.004-2.386,7.937c0,2.936,0.885,5.654,2.386,7.937c2.587,3.941,7.036,6.554,12.107,6.554
		s9.52-2.612,12.113-6.554c1.495-2.282,2.386-5.001,2.386-7.937C92.22,163.893,91.329,161.174,89.827,158.889z"/>
	<path fill="#3D7BA5" d="M193.601,158.889c-2.588-3.941-7.031-6.554-12.102-6.554c-5.071,0-9.514,2.612-12.102,6.554
		c-1.501,2.285-2.386,5.004-2.386,7.937c0,2.936,0.885,5.654,2.38,7.937c2.594,3.941,7.036,6.554,12.107,6.554
		c5.07,0,9.514-2.612,12.107-6.554c1.494-2.282,2.379-5.001,2.379-7.937C195.985,163.893,195.101,161.174,193.601,158.889z"/>
	<path fill="#3D7BA5" d="M297.378,158.889c-2.588-3.941-7.035-6.554-12.107-6.554c-5.064,0-9.514,2.612-12.101,6.554
		c-1.501,2.285-2.386,5.004-2.386,7.937c0,2.936,0.885,5.654,2.386,7.937c2.587,3.941,7.036,6.554,12.101,6.554
		c5.072,0,9.52-2.612,12.113-6.554c1.502-2.282,2.387-5.001,2.387-7.937C299.771,163.893,298.886,161.174,297.378,158.889z"/>
	<path fill="#FFFFFF" d="M0,291.492c0,0.266,0.036,0.525,0.042,0.784v-1.602C0.036,290.949,0,291.215,0,291.492z"/>
	<path fill="#3D7BA5" d="M362.839,86.071h0.067v-0.76l0.024-26.298l0.012-7.314l0.006-3.674l0.007-5.05
		c0.006-0.271,0.042-0.54,0.042-0.818c0-0.265-0.036-0.521-0.042-0.784C362.534,18.45,343.854,0,320.836,0H212.523h-20.889h-5.229
		h-2.344c-1.458,0.039-2.898,0.158-4.314,0.341c-20.821,2.691-36.914,20.44-36.932,41.991v0.028c0,0.009,0,0.021,0,0.031
		l-0.012,9.037v7.32l-0.037,27.205l36.98,0.04v0.037l38.836,0.042h37.891v30.284H48.271c-24.715,0-45.061,18.582-47.898,42.533
		h50.564c3.424-11.561,14.115-20.01,26.784-20.01c12.675,0,23.36,8.449,26.784,20.01h50.211c3.423-11.561,14.108-20.01,26.783-20.01
		c12.668,0,23.359,8.449,26.783,20.01h50.211c3.418-11.561,14.109-20.01,26.777-20.01c12.676,0,23.36,8.449,26.784,20.01h50.942
		v-0.948v-4.47c-0.061-0.156-0.098-0.327-0.158-0.482V86.071z"/>
	<path fill="#FFD43B" d="M285.271,194.771c-12.668,0-23.359-8.449-26.777-20.01h-50.211c-3.424,11.561-14.115,20.01-26.783,20.01
		c-12.675,0-23.36-8.449-26.783-20.01h-50.211c-3.424,11.561-14.109,20.01-26.784,20.01c-12.669,0-23.36-8.449-26.784-20.01H0v0.949
		v4.47c0.062,0.158,0.098,0.326,0.159,0.481v66.917H0.091v0.76l-0.029,26.298l-0.007,7.314l-0.006,3.674l-0.007,5.05v1.602
		C0.464,315.2,19.144,333.65,42.155,333.65h108.318h20.889h5.225h2.343c1.464-0.039,2.898-0.155,4.32-0.342
		c20.821-2.69,36.914-20.439,36.933-41.99v-0.027c0-0.01,0-0.021,0-0.031l0.006-9.037l0.006-7.32l0.031-27.204l-36.976-0.04v-0.037
		l-38.842-0.042h-37.884v-30.283H313.22h3.016c24.049-0.745,43.645-19.043,46.396-42.534h-50.577
		C308.631,186.322,297.946,194.771,285.271,194.771z"/>
	<path fill="#FFFFFF" d="M193.637,60.89c5.603,0,10.435-3.133,12.992-7.713c1.19-2.146,1.935-4.589,1.935-7.22
		c0-2.633-0.744-5.077-1.935-7.222c-2.558-4.577-7.39-7.713-12.992-7.713c-5.626,0-10.448,3.137-13.005,7.713
		c-1.195,2.145-1.939,4.589-1.939,7.222c0,2.63,0.744,5.074,1.939,7.22C183.188,57.756,188.011,60.89,193.637,60.89z"/>
	<path fill="#FFFFFF" d="M169.36,272.764c-5.607,0-10.44,3.131-12.991,7.711c-1.196,2.145-1.94,4.589-1.94,7.219
		c0,2.633,0.744,5.077,1.94,7.223c2.551,4.576,7.384,7.713,12.991,7.713c5.621,0,10.441-3.137,13.005-7.713
		c1.196-2.146,1.935-4.59,1.935-7.223c0-2.63-0.738-5.074-1.935-7.219C179.802,275.895,174.981,272.764,169.36,272.764z"/>
</g>
</svg>
