<?xml version="1.0" encoding="utf-8"?>
<!-- Generator: Adobe Illustrator 16.0.0, SVG Export Plug-In . SVG Version: 6.00 Build 0)  -->
<!DOCTYPE svg PUBLIC "-//W3C//DTD SVG 1.1//EN" "http://www.w3.org/Graphics/SVG/1.1/DTD/svg11.dtd">
<svg version="1.1" id="Layer_1" xmlns="http://www.w3.org/2000/svg" xmlns:xlink="http://www.w3.org/1999/xlink" x="0px" y="0px"
	 width="1833.141px" height="404.887px" viewBox="0 0 1833.141 404.887" enable-background="new 0 0 1833.141 404.887"
	 xml:space="preserve">
<g>
	<g>
		<path fill="#4D4D4D" d="M674.664,100.172c-18.039-12.76-44.003-19.225-77.172-19.225c-9.39,0-19.897,0.4-31.205,1.178
			c-11.412,0.8-21.913,2.348-31.214,4.613l-2.673,0.652v234.883h39.477v-86.028h22.275c16.455,0,31.443-1.378,44.559-4.088
			c13.322-2.755,24.822-7.265,34.176-13.389c9.516-6.221,16.906-14.448,21.971-24.445c5.021-9.938,7.568-22.016,7.568-35.894
			C702.426,132.793,693.088,113.19,674.664,100.172z M661.268,158.097c0,8.724-1.533,15.921-4.569,21.394
			c-3.021,5.421-7.347,9.753-12.886,12.871c-5.754,3.243-12.967,5.583-21.438,6.961c-8.672,1.414-18.625,2.133-29.563,2.133h-20.936
			v-84.311c7.035-0.488,16.521-0.732,28.297-0.732c8.464,0,16.595,0.658,24.178,1.955c7.354,1.266,13.885,3.539,19.41,6.768
			c5.368,3.147,9.678,7.406,12.818,12.664C659.689,143.026,661.268,149.854,661.268,158.097z"/>
		<path fill="#4D4D4D" d="M838.759,143.923c-5.532,24.148-11.493,47.979-17.698,70.824c-5.473,20.128-11.894,40.707-19.129,61.287
			c-4.065-8.968-7.998-18.188-11.723-27.526c-4.88-12.182-9.479-24.519-13.67-36.663c-4.206-12.175-8.072-24.179-11.508-35.672
			c-3.414-11.441-6.383-22.305-8.813-32.302l-0.659-2.674h-40.767l1.148,4.392c8.049,30.836,18.291,61.672,30.443,91.648
			c11.893,29.377,24.896,57.621,38.67,83.97c-5.139,10.907-10.863,18.898-17.01,23.764c-6.258,4.939-15.218,7.449-26.615,7.449
			c-3.487,0-7.079-0.474-10.678-1.399c-3.681-0.948-6.702-1.948-8.969-2.978l-3.909-1.777l-7.257,31.977l2.465,1.229
			c1.066,0.54,2.719,1.155,5.029,1.881c2.184,0.696,4.65,1.341,7.346,1.933c2.688,0.578,5.436,1.045,8.168,1.385
			c2.814,0.355,5.555,0.533,8.139,0.533c9.441,0,18.068-1.177,25.63-3.502c7.649-2.355,14.626-6.059,20.757-11.005
			c6.043-4.88,11.634-11.175,16.617-18.698c4.881-7.376,9.65-16.277,14.189-26.481c11.345-26.252,22.082-54.903,31.917-85.169
			c9.797-30.185,18.831-62.079,26.852-94.811l1.052-4.34h-39.389L838.759,143.923z"/>
		<path fill="#4D4D4D" d="M1001.543,284.047c-2.215,0.889-6.146,2.384-11.805,4.487c-5.258,1.962-12.44,2.962-21.363,2.962
			c-4.955,0-9.316-0.614-12.953-1.829c-3.421-1.141-6.184-3.028-8.449-5.776c-2.317-2.791-4.102-6.813-5.316-11.952
			c-1.267-5.391-1.911-12.389-1.911-20.786v-76.831h65.938v-33.124h-65.938v-54.54l-38.145,6.554v158.274
			c0,11.804,0.985,22.356,2.925,31.361c1.992,9.294,5.539,17.255,10.538,23.675c5.05,6.502,11.804,11.441,20.068,14.67
			c8.071,3.162,18.351,4.762,30.562,4.762c10.33,0,19.684-1.229,27.777-3.658c8.087-2.429,13.634-4.413,16.974-6.08l2.474-1.244
			l-7.584-32.435L1001.543,284.047z"/>
		<path fill="#4D4D4D" d="M1170.141,161.133c-5.813-7.473-13.656-13.352-23.32-17.477c-9.553-4.073-21.623-6.139-35.855-6.139
			c-6.643,0-13.449,0.644-20.217,1.902c-4.999,0.934-9.834,2.162-14.434,3.666V54.852l-38.137,6.561v260.861h38.137v-145.59
			c0.748-0.222,1.696-0.488,2.903-0.807c2.429-0.63,5.265-1.229,8.405-1.777c3.191-0.541,6.546-1.037,10.049-1.481
			c11.855-1.474,22.201-0.444,29.451,2.311c4.977,1.889,8.826,4.828,11.789,8.968c3.029,4.243,5.258,9.975,6.605,17.032
			c1.399,7.339,2.11,16.358,2.11,26.793v94.552h38.146V221.027c0-12.02-1.163-23.201-3.437-33.25
			C1179.997,177.498,1175.895,168.53,1170.141,161.133z"/>
		<path fill="#4D4D4D" d="M1366.131,163.109c-7.562-8.367-16.699-14.914-27.156-19.446c-10.434-4.524-21.941-6.813-34.19-6.813
			c-12.256,0-23.764,2.288-34.198,6.813c-10.471,4.54-19.602,11.079-27.147,19.446c-7.524,8.339-13.456,18.47-17.61,30.125
			c-4.132,11.604-6.228,24.557-6.228,38.501c0,14.174,2.096,27.192,6.228,38.678c4.154,11.538,10.079,21.608,17.61,29.947
			c7.546,8.368,16.677,14.915,27.147,19.446c10.435,4.525,21.942,6.82,34.198,6.82c12.249,0,23.757-2.295,34.19-6.82
			c10.457-4.531,19.595-11.07,27.156-19.446c7.53-8.346,13.447-18.425,17.594-29.947c4.141-11.478,6.236-24.489,6.236-38.678
			c0-13.959-2.096-26.911-6.229-38.501C1379.578,181.586,1373.661,171.455,1366.131,163.109z M1350.482,231.735
			c0,18.758-4.213,33.753-12.5,44.565c-8.19,10.678-19.047,15.862-33.198,15.862c-14.159,0-25.022-5.185-33.206-15.862
			c-8.293-10.805-12.5-25.801-12.5-44.565c0-18.758,4.207-33.754,12.5-44.558c8.191-10.679,19.047-15.87,33.206-15.87
			c14.145,0,25.008,5.191,33.198,15.862C1346.27,197.989,1350.482,212.984,1350.482,231.735z"/>
		<path fill="#4D4D4D" d="M1558.766,161.133c-5.813-7.473-13.656-13.352-23.32-17.477c-9.553-4.073-21.615-6.139-35.849-6.139
			c-15.521,0-29.466,1.029-41.426,3.065c-11.841,2.007-21.505,3.939-28.718,5.739l-2.65,0.666v175.285h38.137V174.729
			c0.763-0.133,1.637-0.289,2.614-0.459c2.525-0.437,5.368-0.822,8.472-1.141c3.184-0.333,6.539-0.607,10.064-0.821
			c12.211-0.756,22.386-0.142,29.658,2.621c4.977,1.889,8.826,4.828,11.789,8.968c3.029,4.243,5.258,9.975,6.605,17.032
			c1.399,7.339,2.117,16.358,2.117,26.793v94.552h38.139V221.027c0-12.02-1.156-23.201-3.437-33.25
			C1568.621,177.498,1564.52,168.53,1558.766,161.133z"/>
		<path fill="#4D4D4D" d="M1637.832,68.899c-6.479,0-12.07,2.177-16.633,6.472c-4.613,4.354-6.953,10.227-6.953,17.447
			c0,7.228,2.34,13.093,6.953,17.447c4.563,4.303,10.153,6.479,16.633,6.479c6.48,0,12.07-2.177,16.633-6.479
			c4.613-4.354,6.961-10.227,6.961-17.447c0-7.213-2.348-13.085-6.969-17.447C1649.902,71.076,1644.313,68.899,1637.832,68.899z"/>
		<rect x="1618.934" y="141.197" fill="#4D4D4D" width="38.145" height="181.076"/>
		<path fill="#4D4D4D" d="M1827.646,282.824l-4.185,1.978c-3.569,1.674-8.62,3.28-15.04,4.776
			c-6.406,1.496-13.678,2.252-21.631,2.252c-9.746,0-18.076-1.43-24.749-4.244c-6.583-2.776-12.041-6.768-16.226-11.878
			c-4.235-5.169-7.391-11.485-9.367-18.78c-2.029-7.457-3.059-15.817-3.059-24.859c0-20.023,4.398-35.368,13.063-45.602
			c8.643-10.197,20.854-15.159,37.324-15.159c6.635,0,12.974,0.645,18.838,1.925c5.836,1.274,11.042,2.992,15.471,5.103l3.813,1.808
			l8.909-33.51l-2.867-1.162c-7.354-2.978-15.143-5.191-23.148-6.562c-7.976-1.37-16.063-2.059-24.023-2.059
			c-13.145,0-25.281,2.407-36.063,7.161c-10.797,4.762-20.054,11.479-27.503,19.972c-7.406,8.457-13.204,18.588-17.24,30.11
			c-4.014,11.471-6.051,24.252-6.051,37.975c0,13.7,1.859,26.4,5.525,37.73c3.702,11.471,9.412,21.527,16.973,29.896
			c7.554,8.383,16.98,14.98,28.015,19.624c10.981,4.628,23.89,6.969,38.345,6.969c4.547,0,9.36-0.289,14.307-0.859
			c4.844-0.563,9.479-1.252,13.789-2.044c4.385-0.814,8.338-1.74,11.745-2.763c3.695-1.11,6.487-2.28,8.554-3.569l1.977-1.243
			L1827.646,282.824z"/>
	</g>
	<g>
		<path fill="#FFFFFF" d="M381.923,263.781c0.614,0,1.214-0.073,1.829-0.092h-3.658
			C380.708,263.708,381.309,263.781,381.923,263.781z"/>
		<path fill="#3D7BA5" d="M109.007,192.813c-3.14-4.783-8.539-7.953-14.692-7.953s-11.552,3.17-14.692,7.953
			c-1.821,2.773-2.896,6.072-2.896,9.631c0,3.563,1.074,6.861,2.896,9.631c3.14,4.783,8.539,7.953,14.692,7.953
			s11.552-3.17,14.7-7.953c1.814-2.77,2.896-6.068,2.896-9.631C111.91,198.885,110.829,195.586,109.007,192.813z"/>
		<path fill="#3D7BA5" d="M234.935,192.813c-3.14-4.783-8.531-7.953-14.685-7.953c-6.154,0-11.545,3.17-14.685,7.953
			c-1.822,2.773-2.896,6.072-2.896,9.631c0,3.563,1.074,6.861,2.888,9.631c3.147,4.783,8.538,7.953,14.692,7.953
			c6.154,0,11.545-3.17,14.692-7.953c1.814-2.77,2.888-6.068,2.888-9.631C237.83,198.885,236.756,195.586,234.935,192.813z"/>
		<path fill="#3D7BA5" d="M360.87,192.813c-3.14-4.783-8.538-7.953-14.692-7.953c-6.146,0-11.545,3.17-14.685,7.953
			c-1.822,2.773-2.896,6.072-2.896,9.631c0,3.563,1.074,6.861,2.896,9.631c3.14,4.783,8.539,7.953,14.685,7.953
			c6.154,0,11.552-3.17,14.699-7.953c1.822-2.77,2.896-6.068,2.896-9.631C363.772,198.885,362.699,195.586,360.87,192.813z"/>
		<path fill="#FFFFFF" d="M0,353.727c0,0.322,0.044,0.638,0.052,0.952v-1.944C0.044,353.068,0,353.391,0,353.727z"/>
		<path fill="#3D7BA5" d="M440.307,104.448h0.082v-0.922l0.03-31.913l0.015-8.875l0.007-4.459l0.008-6.127
			c0.007-0.33,0.052-0.656,0.052-0.992c0-0.322-0.044-0.634-0.052-0.952C439.937,22.39,417.269,0,389.336,0H257.898H232.55h-6.346
			h-2.844c-1.77,0.048-3.518,0.192-5.235,0.415c-25.267,3.266-44.795,24.804-44.817,50.957v0.033c0,0.011,0,0.025,0,0.037
			l-0.015,10.967v8.883l-0.044,33.013l44.876,0.048v0.045l47.127,0.052h45.98v36.749H58.576c-29.992,0-54.681,22.55-58.125,51.615
			h61.361c4.154-14.029,17.128-24.282,32.502-24.282c15.381,0,28.348,10.253,32.502,24.282h60.931
			c4.154-14.029,17.121-24.282,32.502-24.282c15.374,0,28.348,10.253,32.502,24.282h60.931
			c4.147-14.029,17.121-24.282,32.495-24.282c15.381,0,28.348,10.253,32.502,24.282h61.82v-1.151v-5.425
			c-0.074-0.188-0.119-0.396-0.193-0.585V104.448z"/>
		<path fill="#FFD43B" d="M346.178,236.356c-15.374,0-28.348-10.253-32.495-24.282h-60.931
			c-4.155,14.029-17.129,24.282-32.502,24.282c-15.381,0-28.348-10.253-32.502-24.282h-60.931
			c-4.154,14.029-17.121,24.282-32.502,24.282c-15.374,0-28.348-10.253-32.502-24.282H0v1.151v5.425
			c0.074,0.192,0.119,0.396,0.192,0.584v81.204H0.111v0.922l-0.037,31.913l-0.007,8.875l-0.008,4.459l-0.007,6.127v1.944
			c0.511,27.818,23.179,50.208,51.104,50.208h131.445h25.348h6.339h2.843c1.777-0.048,3.518-0.188,5.243-0.414
			c25.267-3.267,44.795-24.805,44.817-50.957v-0.033c0-0.011,0-0.025,0-0.037l0.007-10.967l0.007-8.883l0.037-33.014l-44.869-0.048
			v-0.044l-47.135-0.052h-45.973v-36.749h250.827h3.658c29.184-0.904,52.963-23.108,56.303-51.615H378.68
			C374.525,226.104,361.559,236.356,346.178,236.356z"/>
		<path fill="#FFFFFF" d="M234.979,73.891c6.798,0,12.663-3.803,15.766-9.36c1.444-2.604,2.347-5.569,2.347-8.761
			c0-3.195-0.903-6.161-2.347-8.765c-3.103-5.554-8.968-9.36-15.766-9.36c-6.828,0-12.678,3.807-15.781,9.36
			c-1.452,2.604-2.355,5.569-2.355,8.765c0,3.191,0.903,6.157,2.355,8.761C222.301,70.088,228.151,73.891,234.979,73.891z"/>
		<path fill="#FFFFFF" d="M205.521,331c-6.806,0-12.67,3.799-15.766,9.356c-1.451,2.604-2.355,5.569-2.355,8.761
			c0,3.195,0.904,6.161,2.355,8.764c3.096,5.555,8.96,9.361,15.766,9.361c6.82,0,12.67-3.807,15.781-9.361
			c1.452-2.603,2.348-5.568,2.348-8.764c0-3.191-0.896-6.157-2.348-8.761C218.191,334.799,212.341,331,205.521,331z"/>
	</g>
</g>
</svg>
