<?xml version="1.0" encoding="UTF-8" standalone="no"?>
<svg
   xmlns:dc="http://purl.org/dc/elements/1.1/"
   xmlns:cc="http://creativecommons.org/ns#"
   xmlns:rdf="http://www.w3.org/1999/02/22-rdf-syntax-ns#"
   xmlns:svg="http://www.w3.org/2000/svg"
   xmlns="http://www.w3.org/2000/svg"
   xmlns:sodipodi="http://sodipodi.sourceforge.net/DTD/sodipodi-0.dtd"
   xmlns:inkscape="http://www.inkscape.org/namespaces/inkscape"
   height="512pt"
   viewBox="0 0 512.00101 512"
   width="512pt"
   id="svg2"
   version="1.1"
   inkscape:version="0.91 r13725"
   sodipodi:docname="plug2.svg">
  <metadata
     id="metadata12">
    <rdf:RDF>
      <cc:Work
         rdf:about="">
        <dc:format>image/svg+xml</dc:format>
        <dc:type
           rdf:resource="http://purl.org/dc/dcmitype/StillImage" />
      </cc:Work>
    </rdf:RDF>
  </metadata>
  <defs
     id="defs10" />
  <sodipodi:namedview
     pagecolor="#ffffff"
     bordercolor="#666666"
     borderopacity="1"
     objecttolerance="10"
     gridtolerance="10"
     guidetolerance="10"
     inkscape:pageopacity="0"
     inkscape:pageshadow="2"
     inkscape:window-width="1920"
     inkscape:window-height="1017"
     id="namedview8"
     showgrid="false"
     inkscape:zoom="1.0429825"
     inkscape:cx="125.81738"
     inkscape:cy="370.19664"
     inkscape:window-x="0"
     inkscape:window-y="0"
     inkscape:window-maximized="1"
     inkscape:current-layer="svg2" />
  <path
     d="m 452.07886,46.558631 -75.00028,-0.003 0,-14.9984 c 0,-24.8150296 -20.18569,-45.00071 -45.00071,-45.00071 l -17.57824,0 c -6.19271,-17.45646 -22.86772,-29.99931 -42.42088,-30.00208 l -75.00028,0.003 0,-14.99839 c 1e-5,-8.28641 -6.71475,-15.00117 -15.00116,-15.00116 -8.28088,0 -14.99563,6.71475 -14.9984,14.9984 1e-5,4.82269 0.003,229.144009 -1e-5,240.001969 0,8.28089 6.71751,14.9984 14.99839,14.99839 8.28642,0 15.00116,-6.71474 15.00117,-15.00115 l 0,-14.99839 75.00028,0.003 c 19.55592,-1e-5 36.22817,-12.54563 42.42088,-30.00233 l 17.57823,0 c 24.87028,-1e-5 45.00073,-20.12492 45.00073,-45.000709 l 0,-14.99841 75.00304,0 c 8.28089,0 14.99564,-6.71475 14.9984,-14.9984 0,-8.28641 -6.71752,-15.00392 -15.00116,-15.00115 z m -104.99983,-15.00392 -0.003,60.00188 c 10e-6,8.29192 -6.70645,14.998389 -14.9984,14.998389 l -15.00115,0.003 0,-90.001429 15.00116,0.003 c 8.2726,-0.003 15.00116,6.7258 15.00116,14.99564 z m -75.00029,105.002589 -75.00304,1e-5 0.003,-149.997779 75.00027,-0.003 c 8.26984,0 14.99841,6.7285704 15.00116,15.0011504 l -0.003,0.003 0.003,119.9954686 c -0.003,8.27259 -6.73134,15.00115 -15.00116,15.00115 z m 0,0"
     id="path4"
     inkscape:connector-curvature="0"
     inkscape:export-xdpi="12.000079"
     inkscape:export-ydpi="12.000079" />
  <path
     d="m 88.201169,374.81512 66.595101,0.0552 0,15.01497 c 0,24.80951 20.18845,44.99796 45.00071,45.00072 l 17.581,-0.003 c 6.18166,17.4346 22.818,29.99956 42.41812,29.99956 l 75.00028,0.003 0,14.99839 c 0,8.28089 6.71475,15.00116 14.9984,14.9984 8.2864,0 15.00116,-6.71475 15.00116,-15.00116 l 0.003,-44.99795 74.99752,-10e-6 c 8.28641,0 15.00116,-6.71475 15.00116,-15.00116 0,-8.28088 -6.71751,-14.99839 -15.00116,-15.00116 l -75.00028,0.003 1e-5,-90.00143 75.00028,0.003 c 8.2864,0 15.00116,-6.71475 15.00116,-15.00116 -0.003,-8.28365 -6.71752,-14.9984 -15.00116,-15.00116 l -75.00028,0.003 c 0,-8.99904 0,-36.06245 0,-45.00072 0.003,-8.28365 -6.71475,-15.00116 -15.00116,-15.00116 -8.28088,0 -14.9984,6.71752 -14.9984,14.9984 l 0,15.00392 -75.00028,-0.003 c -19.55316,-0.003 -36.22818,12.5401 -42.41812,29.99956 l -17.581,0.003 c -24.81227,-0.003 -45.00072,20.18569 -44.99796,44.99796 l -0.003,14.99011 -66.570241,-0.058 c -8.28364,-0.008 -15.00668,6.7037 -15.01497,14.98735 -0.005,8.25878 6.68161,15.00668 14.99011,15.0122 z m 96.594661,15.06745 c 0,-21.48389 0,-37.90755 0,-59.99911 0,-8.26984 6.73132,-15.00116 15.00116,-15.00116 l 14.9984,0 -1e-5,90.00143 -14.99839,0 c -8.27536,0 -14.9984,-6.72856 -15.00116,-15.00116 z m 75.00028,-104.99707 75.00028,-0.003 c 0,27.19598 -10e-6,131.57709 -10e-6,150.00054 l -74.99752,0 c -8.27259,0.003 -15.00115,-6.7258 -15.00392,-14.9984 l 0.003,-0.003 10e-6,-119.99822 c -0.003,-8.2726 6.7258,-15.00116 14.9984,-14.9984 z m 0,0"
     id="path6"
     inkscape:connector-curvature="0"
     inkscape:export-xdpi="9.4343147"
     inkscape:export-ydpi="9.4343147" />
</svg>
