<svg id="Layer_1" enable-background="new 0 0 512 512" height="512" viewBox="0 0 512 512" width="512" xmlns="http://www.w3.org/2000/svg"><g><path d="m362.038 0h-212.076l-149.962 149.961v212.078l149.962 149.961h212.076l149.962-149.961v-212.078zm119.962 349.612-132.388 132.388h-187.224l-132.388-132.388v-187.224l132.388-132.388h187.225l132.387 132.388z"/><path d="m112.49 244.428c-6.9-2.593-12.075-3.86-16.232-4.878-4.961-1.215-6.799-1.714-9.189-3.268-1.5-.975-2.27-3.336-2.232-5.065.035-1.698 1.636-4.967 5.777-6.513 5.709-2.13 11.114-2.623 28.813 10.52l17.887-24.084c-12.026-8.933-32.155-23.885-57.188-14.543-14.81 5.526-24.97 19.184-25.283 33.983-.208 9.793 3.854 23.041 15.878 30.856 6.78 4.408 12.689 5.855 18.403 7.253 3.732.914 7.592 1.859 12.814 3.822 8.063 3.03 7.429 6.695 7.189 8.075-.541 3.123-4.992 7.743-12.83 7.743-8.264 0-16.183-3.294-21.182-8.811l-22.23 20.145c10.75 11.862 26.573 18.666 43.412 18.666 21.288 0 39.116-13.72 42.391-32.622 3.106-17.929-7.177-34.132-26.198-41.279z"/><path d="m150.329 224.661h25.488v92.678h30v-92.678h25.695v-30h-81.183z"/><path d="m408.23 276.977s9.932-.008 10.806-.008c22.975 0 41.666-18.461 41.666-41.154s-18.691-41.154-41.666-41.154h-40.806v122.679h30zm10.806-52.316c6.323 0 11.666 5.108 11.666 11.154s-5.343 11.154-11.666 11.154c-2.597 0-6.612.015-10.707.034-.02-4.304-.044-17.828-.056-22.342z"/><path d="m298.548 194.661c-33.823 0-61.34 27.517-61.34 61.339s27.517 61.339 61.34 61.339c33.822 0 61.339-27.517 61.339-61.339s-27.517-61.339-61.339-61.339zm0 92.678c-17.281 0-31.34-14.059-31.34-31.339s14.059-31.339 31.34-31.339c17.28 0 31.339 14.059 31.339 31.339s-14.059 31.339-31.339 31.339z"/></g></svg>